<svg width="1238" height="1406" xmlns="http://www.w3.org/2000/svg" xmlns:xlink="http://www.w3.org/1999/xlink" xml:space="preserve" overflow="hidden"><g transform="translate(-2619 -709)"><path d="M526.837 39.747C523.098 60.7049 541.197 84.7198 550.531 102.117 577.74 152.815 603.35 201.837 622.335 256.297 639.581 305.772 651.311 354.738 651.881 407.402 652.423 457.225 632.572 506.309 599.046 543.313 587.56 555.989 574.449 567.199 560.024 576.395 469.763 633.934 345.244 603.22 296.274 507.157 289.447 493.765 284.282 479.534 280.932 464.881 198.329 498.423 109.036 485.337 54.1301 431.443 22.965 400.849 4.25144 357.342 1.30394 313.939-3.46684 243.716 33.6235 175.43 92.3277 137.669 85.8372 141.846 81.0192 159.732 78.4744 166.334 70.0026 188.318 65.1019 211.864 65.3495 235.471 65.8724 285.438 92.1465 333.926 133.317 362.127 163 382.458 199.881 391.909 235.685 388.744 257.999 386.771 280.433 375.816 301.625 368.547 314.826 396.708 331.442 426.007 352.969 448.601 383.665 480.823 435.339 495.639 478.786 490.426 523.816 485.023 566.142 457.546 587.483 417.515 638.664 321.502 585.079 206.813 537.573 120.871 523.859 96.064 510.133 70.7667 501.592 43.577 496.468 27.2575 494.284 8.00341 513.994 1.15175 515.351 0.68022 516.774 0.314836 518.209 0.38813 519.988 0.472976 521.668 1.22721 523.195 2.14645 539.418 11.9183 529.339 25.7397 526.837 39.747" fill="#737A61" fill-rule="evenodd" transform="matrix(1 0 0 -1 2733 1315)"/><path d="M121.853 473.42C121.853 474.31 121.289 475.471 121.05 476.336 120.78 477.306 120.51 478.279 120.238 479.249 119.691 481.19 119.139 483.133 118.578 485.069 116.15 493.507 113.6 501.911 110.926 510.273 108.245 518.639 105.439 526.965 102.495 535.24 99.5508 543.514 96.4704 551.74 93.2421 559.908 90.0211 568.065 86.6493 576.167 83.1255 584.202 79.6037 592.224 75.927 600.183 72.0881 608.058 68.2542 615.922 64.2559 623.712 60.0861 631.405 55.9235 639.093 51.5868 646.687 47.0721 654.172 42.5617 661.66 37.8707 669.039 33.0014 676.296 28.1274 683.556 23.0656 690.683 17.8323 697.686 17.4399 698.211 17.2734 698.692 16.5268 698.574 15.2543 698.378 14.0779 697.881 12.8666 697.464 10.6878 696.716 8.57232 695.811 6.46152 694.897 4.83445 694.193 3.17466 693.538 1.57348 692.78 0.401732 691.781 1.0804 690.761 1.53823 689.875 2.07592 688.832 2.6136 687.786 3.1466 686.743 4.21945 684.651 5.29013 682.557 6.34895 680.458 8.4691 676.261 10.5608 672.047 12.6037 667.81 16.4868 659.761 20.2668 651.666 23.9435 643.521 27.6203 635.376 31.1959 627.183 34.6637 618.949 38.134 610.712 41.496 602.43 44.757 594.111 48.0183 585.789 51.1736 577.425 54.2187 569.026 57.2686 560.622 60.2127 552.182 63.0489 543.708 65.8877 535.233 68.6181 526.72 71.2429 518.175 73.8702 509.632 76.3848 501.053 78.796 492.444 81.2071 483.833 83.5103 475.196 85.7056 466.53 87.9009 457.864 89.988 449.171 91.9672 440.451 93.9463 431.731 95.8176 422.988 97.581 414.223 99.3418 405.459 100.995 396.671 102.54 387.862 104.082 379.057 105.517 370.229 106.838 361.389 108.163 352.544 109.379 343.686 110.477 334.813 111.581 325.94 112.574 317.053 113.455 308.154 114.335 299.258 115.105 290.35 115.76 281.432 116.42 272.517 116.962 263.592 117.399 254.66 117.829 245.729 118.15 236.797 118.357 227.858 118.566 218.919 118.66 209.978 118.641 201.035 118.622 192.093 118.488 183.155 118.242 174.216 117.993 165.279 117.631 156.343 117.155 147.414 117.004 144.556 116.838 141.699 116.666 138.847 79.4182 147.015 39.141 115.896 36.0372 77.7732 32.9334 39.6485 66.0635 2.92765 104.127 0.70864 122.755-0.377051 142.025 6.10029 155.117 19.4392 172.035 36.6714 176.82 62.3524 178.264 86.4956 181.079 133.467 174.362 180.429 167.685 227.003 155.817 309.765 143.963 392.799 121.853 473.42" fill="#737A61" fill-rule="evenodd" transform="matrix(1 0 0 -1 3260 2115)"/><path d="M588.152 493.506C586.815 491.871 586.758 489.571 586.765 487.457 586.841 461.177 586.697 434.896 586.335 408.623 585.732 364.848 584.502 320.919 577.374 277.726 564.529 199.893 524.84 124.289 443.47 102.326 367.22 81.7474 292.081 118.749 263.691 192.341 261.353 198.406 244.735 293.818 257.543 292.609 195.017 298.505 125.447 331.43 100.145 392.383 82.1346 435.768 90.6048 477.544 112.58 517.065 137.344 561.596 177.365 591.307 227.085 602.434 290.162 616.549 358.844 609.526 422.792 604.814 502.226 598.956 531.191 592.961 531.368 594.069 532.627 601.918 415.375 617.387 408.185 618.179 315.557 628.358 211.687 629.824 123.196 596.352 76.4592 578.674 35.1035 545.704 15.9373 498.563-1.51217 455.635-4.26742 406.764 10.135 362.586 24.0191 319.985 53.3416 282.249 91.8129 259.21 135.854 232.84 178.238 232.267 194.904 232.915 173.743 110.615 272.294-6.86619 398.13 0.940662 567.939 11.4735 592.909 195.282 600.821 329.406 604.173 386.218 607.528 443.03 610.877 499.842 605.126 498.584 599.373 497.326 593.618 496.065 591.616 495.627 589.452 495.097 588.152 493.506" fill="#737A61" fill-rule="evenodd" transform="matrix(1 0 0 -1 2619 1938)"/><path d="M317.002 339.654C320.511 336.997 353.249 405.552 355.514 411.655 365.731 439.176 371.841 468.366 371.424 497.805 370.672 550.792 346.435 605.113 301.611 633.406 272.616 651.713 237.368 658.086 203.084 657.436 125.682 655.969 49.6764 618.807 0.999837 558.631 21.6246 584.126 73.9038 591.767 104.036 591.206 141.631 590.509 179.384 577.823 207.168 552.083 268.536 495.228 273.465 392.38 211.942 325.333 217.794 331.709 262.121 272.602 265.467 266.506 278.415 242.928 285.659 216.185 285.619 189.246 285.458 84.9026 176.879 17.7045 80.6171 42.4933 191.835-34.4161 401.255-10.3085 410.68 152.93 414.987 227.54 375.382 295.45 317.002 339.654" fill="#737A61" fill-rule="evenodd" transform="matrix(1 0 0 -1 3446 1637)"/></g></svg>